# xmcd
#
# Track frame offsets: 
#        150
#        23362
#        37424
#        53210
#        67871
#        86660
#        102147
#        113810
#        134546
#        151457
#        169870
#        197507
#
# Disc length: 2901 seconds
#
# Revision: 0
# Processed by: cddbd v1.5.1PL0 Copyright (c) Steve Scherf et al.
# Submitted via: ExactAudioCopy v0.95a5
#
DISCID=9a0b530c
DTITLE=Various Artist - The.Rose.(牧童笛)
DYEAR=1900
DGENRE=
TTITLE0=神鹰
TTITLE1=集市
TTITLE2=雨
TTITLE3=波斯人的祈祷
TTITLE4=希腊舞蹈
TTITLE5=希望之歌
TTITLE6=沉默之声
TTITLE7=加利福尼亚旅馆
TTITLE8=我的路
TTITLE9=空气
TTITLE10=柔板乐章
TTITLE11=玫瑰
EXTD=
EXTT0=
EXTT1=
EXTT2=
EXTT3=
EXTT4=
EXTT5=
EXTT6=
EXTT7=
EXTT8=
EXTT9=
EXTT10=
EXTT11=
PLAYORDER=
